<?xml version="1.0" standalone="no"?>
<!DOCTYPE svg PUBLIC "-//W3C//DTD SVG 20010904//EN"
 "http://www.w3.org/TR/2001/REC-SVG-20010904/DTD/svg10.dtd">
<svg version="1.0" xmlns="http://www.w3.org/2000/svg"
 width="900.000000pt" height="257.000000pt" viewBox="0 0 900.000000 257.000000"
 preserveAspectRatio="xMidYMid meet">

<g transform="translate(0.000000,257.000000) scale(0.100000,-0.100000)"
fill="#000000" stroke="none">
<path d="M4262 2504 c-131 -36 -229 -134 -252 -252 -19 -100 22 -215 86 -244
14 -6 23 -15 22 -19 -4 -10 -153 -88 -368 -193 -199 -97 -271 -169 -265 -262
3 -45 45 -124 66 -124 5 0 7 6 3 13 -4 7 -3 9 2 4 5 -5 9 -12 9 -15 1 -4 28
-35 62 -69 92 -92 126 -147 131 -209 4 -47 1 -55 -21 -77 -15 -13 -58 -40 -98
-61 -39 -21 -80 -46 -91 -56 -66 -61 76 -115 186 -71 63 26 90 52 120 116 l23
46 31 -131 c37 -153 80 -263 123 -310 l31 -35 -22 33 c-115 173 -150 543 -79
821 39 149 121 289 225 380 46 40 79 56 54 26 -15 -18 -10 -18 26 -5 18 7 30
7 39 0 8 -6 16 -7 19 -2 3 5 17 7 31 5 13 -3 23 -9 20 -12 -2 -4 2 -8 10 -8 8
0 12 4 10 8 -5 7 38 18 82 22 11 1 19 5 16 10 -3 6 10 8 42 7 11 -1 33 25 28
33 -11 18 67 -7 126 -40 144 -80 270 -250 329 -443 26 -83 52 -258 52 -343 0
-172 -48 -393 -103 -470 l-20 -29 22 14 c53 31 116 209 136 383 3 28 8 65 11
83 l6 33 23 -34 c13 -19 50 -48 87 -67 52 -28 74 -35 124 -35 68 0 94 14 94
51 0 25 -3 27 -139 117 -36 23 -68 52 -72 63 -11 32 19 74 100 138 38 31 90
83 116 116 25 33 50 60 55 60 4 0 18 16 30 36 27 43 24 122 -6 155 -62 69
-201 130 -444 195 -52 14 -113 37 -137 51 -36 21 -78 38 -238 95 -16 6 -32 12
-34 14 -1 1 8 18 22 36 48 64 60 98 54 153 -11 112 -90 228 -182 270 -85 39
-227 52 -313 29z m146 -5 c12 1 22 -2 22 -8 0 -5 -9 -8 -21 -6 -17 4 -19 2 -9
-10 7 -8 9 -15 6 -15 -4 0 -1 -10 5 -22 l12 -23 -20 20 c-11 11 -19 22 -17 25
1 3 -2 12 -8 20 -8 13 -9 12 -5 -2 8 -24 -19 -44 -38 -28 -18 15 -20 0 -2 -20
10 -12 9 -12 -4 -2 -9 6 -18 9 -21 6 -3 -3 -9 0 -14 7 -4 8 -3 10 4 5 7 -4 12
-2 12 3 0 6 -9 11 -19 11 -13 0 -18 6 -17 18 2 12 12 17 39 17 19 0 39 3 43 7
4 4 12 4 18 1 6 -4 21 -6 34 -4z m72 -9 c3 -1 8 -2 12 -1 4 0 5 -5 2 -13 -6
-15 -21 -16 -40 -3 -14 8 -27 -20 -18 -36 5 -8 2 -8 -6 0 -16 15 -23 46 -9 37
5 -3 12 1 15 9 4 13 22 15 44 7z m60 -20 c0 -5 -2 -10 -4 -10 -3 0 -8 5 -11
10 -3 6 -1 10 4 10 6 0 11 -4 11 -10z m10 -37 c0 -2 -9 1 -19 7 -29 15 -35 12
-20 -7 11 -15 11 -16 -1 -6 -10 10 -16 9 -24 -3 -9 -12 -11 -9 -13 12 0 16 2
22 7 15 5 -10 9 -9 13 4 6 14 9 14 32 -1 14 -9 25 -18 25 -21z m-90 12 c0 -8
-2 -15 -4 -15 -2 0 -6 7 -10 15 -3 8 -1 15 4 15 6 0 10 -7 10 -15z m145 -5 c3
-6 -1 -7 -9 -4 -18 7 -21 14 -7 14 6 0 13 -4 16 -10z m32 -112 c27 -25 31 -79
7 -98 -40 -34 -120 51 -94 100 14 27 57 26 87 -2z m-429 -4 c13 -9 22 -26 22
-40 0 -27 -49 -84 -72 -84 -54 0 -69 78 -23 118 31 26 43 27 73 6z m280 -102
c2 -6 10 -12 17 -12 19 0 37 -34 29 -55 -6 -13 -8 -14 -15 -3 -5 7 -9 8 -9 2
0 -7 -11 -9 -26 -6 -16 3 -30 -1 -35 -9 -7 -12 -9 -12 -9 0 0 11 -3 11 -17 0
-15 -12 -16 -12 -8 1 8 13 7 13 -8 1 -14 -11 -17 -11 -17 0 0 11 -2 11 -10 -1
-8 -12 -10 -12 -10 -1 0 11 -3 11 -17 0 -9 -8 -14 -9 -11 -3 4 6 -10 15 -33
21 -33 9 -41 8 -49 -6 -5 -9 -10 -11 -10 -4 -1 50 81 93 173 90 38 -2 62 -7
65 -15z m-522 -611 c-41 -102 -73 -219 -83 -301 -3 -30 -7 -62 -9 -70 -1 -8
-3 -22 -3 -30 -1 -8 -12 5 -26 28 -14 24 -54 75 -89 113 -79 85 -93 118 -65
153 10 13 43 38 71 54 29 17 94 57 143 90 50 33 92 58 93 57 2 -2 -13 -44 -32
-94z m1109 19 c106 -33 262 -107 269 -127 4 -9 -6 -21 -25 -31 -93 -52 -157
-101 -186 -144 l-31 -48 -7 42 c-10 57 -56 189 -96 273 -19 39 -35 74 -37 78
-2 5 13 0 34 -11 22 -11 57 -25 79 -32z"/>
<path d="M4355 2490 c-4 -6 -10 -8 -15 -5 -5 3 -12 1 -15 -5 -5 -8 -11 -7 -21
1 -8 6 -17 9 -20 6 -3 -3 3 -10 15 -16 13 -8 22 -8 26 -1 4 6 11 8 16 4 5 -3
6 -10 3 -16 -5 -7 -2 -8 5 -4 7 5 10 11 7 14 -3 3 -1 11 5 19 6 7 9 13 6 13
-3 0 -9 -5 -12 -10z"/>
<path d="M4583 2313 c-18 -7 -16 -48 2 -63 37 -30 72 14 39 51 -18 20 -21 21
-41 12z"/>
<path d="M4141 2286 c-16 -19 -11 -46 11 -60 22 -13 60 19 56 48 -4 26 -49 34
-67 12z"/>
<path d="M4780 458 c0 -4 -12 -8 -27 -8 -46 0 -57 -13 -50 -60 5 -36 2 -45
-20 -63 -39 -34 -56 -82 -43 -122 6 -18 17 -36 25 -39 10 -3 12 0 8 12 -4 9
-11 20 -16 23 -12 8 2 51 14 44 5 -4 13 2 17 12 8 20 42 25 54 8 5 -6 8 -5 8
3 0 7 5 10 10 7 6 -3 10 -2 10 4 0 5 9 8 20 6 11 -2 20 1 20 6 0 6 4 8 9 5 5
-3 12 1 15 10 3 8 11 12 17 8 8 -4 7 -9 -2 -15 -10 -6 -10 -9 -2 -9 6 0 14 4
18 9 6 10 55 7 77 -4 7 -4 4 1 -6 9 -11 9 -26 16 -33 16 -7 0 -31 7 -53 16
l-40 16 0 57 c0 45 -3 58 -15 58 -8 0 -15 -4 -15 -9z"/>
<path d="M4210 411 c0 -63 -6 -66 -151 -83 -54 -6 -96 -15 -93 -19 2 -4 21 -5
42 -3 29 5 34 3 22 -6 -13 -10 -13 -11 0 -7 8 2 14 10 13 16 -2 6 4 11 13 11
8 0 12 -4 9 -10 -4 -7 2 -7 19 -1 19 8 26 6 30 -5 4 -11 15 -14 42 -10 32 5
35 4 30 -11 -5 -15 -4 -15 9 1 8 11 15 15 15 8 0 -6 6 -9 14 -6 8 3 17 1 21
-5 3 -6 2 -11 -3 -11 -5 0 -14 -10 -20 -22 -6 -13 -11 -17 -11 -10 -1 7 -6 10
-11 7 -8 -5 -7 -11 0 -20 9 -11 7 -13 -15 -9 -17 3 -24 1 -20 -6 10 -17 -7
-11 -22 7 -13 16 -13 15 -2 -6 11 -22 10 -23 -15 -17 -16 4 -26 2 -26 -4 0 -7
-7 -7 -21 1 -15 8 -19 8 -15 0 4 -6 0 -11 -8 -11 -9 0 -16 -4 -16 -9 0 -5 39
0 88 10 48 11 101 22 117 26 56 10 140 35 153 45 21 18 13 40 -30 81 -29 27
-42 48 -42 68 -1 31 -6 38 -32 44 -11 2 -34 7 -51 11 l-33 7 0 -52z m-65 -101
c3 -5 -1 -10 -10 -10 -9 0 -13 5 -10 10 3 6 8 10 10 10 2 0 7 -4 10 -10z m112
-86 c-3 -3 -12 -4 -19 -1 -8 3 -5 6 6 6 11 1 17 -2 13 -5z"/>
<path d="M4648 443 c6 -2 18 -2 25 0 6 3 1 5 -13 5 -14 0 -19 -2 -12 -5z"/>
<path d="M3893 303 c9 -2 25 -2 35 0 9 3 1 5 -18 5 -19 0 -27 -2 -17 -5z"/>
<path d="M3768 293 c6 -2 18 -2 25 0 6 3 1 5 -13 5 -14 0 -19 -2 -12 -5z"/>
<path d="M3688 283 c12 -2 30 -2 40 0 9 3 -1 5 -23 4 -22 0 -30 -2 -17 -4z"/>
<path d="M4211 271 c-8 -5 -9 -11 -3 -15 5 -3 12 1 16 9 6 17 6 18 -13 6z"/>
<path d="M4160 246 c0 -2 8 -10 18 -17 15 -13 16 -12 3 4 -13 16 -21 21 -21
13z"/>
<path d="M3999 166 c-2 -2 -49 -11 -104 -20 -55 -9 -113 -19 -130 -23 -16 -3
-102 -9 -190 -13 l-160 -7 170 3 c94 1 193 7 220 12 28 5 84 15 125 22 73 12
125 29 89 30 -9 0 -18 -2 -20 -4z"/>
<path d="M4720 125 c13 -14 26 -25 28 -25 3 0 -5 11 -18 25 -13 14 -26 25 -28
25 -3 0 5 -11 18 -25z"/>
<path d="M5298 73 c7 -3 16 -2 19 1 4 3 -2 6 -13 5 -11 0 -14 -3 -6 -6z"/>
<path d="M4848 63 c7 -3 16 -2 19 1 4 3 -2 6 -13 5 -11 0 -14 -3 -6 -6z"/>
<path d="M5195 60 c-3 -5 -1 -10 4 -10 6 0 11 5 11 10 0 6 -2 10 -4 10 -3 0
-8 -4 -11 -10z"/>
<path d="M5248 63 c6 -2 18 -2 25 0 6 3 1 5 -13 5 -14 0 -19 -2 -12 -5z"/>
<path d="M4888 53 c6 -2 18 -2 25 0 6 3 1 5 -13 5 -14 0 -19 -2 -12 -5z"/>
<path d="M4938 53 c7 -3 16 -2 19 1 4 3 -2 6 -13 5 -11 0 -14 -3 -6 -6z"/>
<path d="M5133 53 c9 -2 23 -2 30 0 6 3 -1 5 -18 5 -16 0 -22 -2 -12 -5z"/>
</g>
</svg>
